<svg xmlns="http://www.w3.org/2000/svg" xmlns:xlink="http://www.w3.org/1999/xlink" width="500" zoomAndPan="magnify" viewBox="0 0 375 374.999991" height="500" preserveAspectRatio="xMidYMid meet" version="1.0"><defs><filter x="0%" y="0%" width="100%" height="100%" id="636c7d1b59"><feColorMatrix values="0 0 0 0 1 0 0 0 0 1 0 0 0 0 1 0 0 0 1 0" color-interpolation-filters="sRGB"/></filter><g/><mask id="17318a5a83"><g filter="url(#636c7d1b59)"><rect x="-37.5" width="450" fill="#000000" y="-37.499999" height="449.999989" fill-opacity="0.18"/></g></mask><clipPath id="36dc838e50"><path d="M 0.214844 0.320312 L 30.789062 0.320312 L 30.789062 57.921875 L 0.214844 57.921875 Z M 0.214844 0.320312 " clip-rule="nonzero"/></clipPath><clipPath id="51cbcb28fb"><path d="M 14 26 L 30.789062 26 L 30.789062 57.921875 L 14 57.921875 Z M 14 26 " clip-rule="nonzero"/></clipPath><clipPath id="ac12ba2256"><rect x="0" width="31" y="0" height="58"/></clipPath><mask id="40bb7e3558"><g filter="url(#636c7d1b59)"><rect x="-37.5" width="450" fill="#000000" y="-37.499999" height="449.999989" fill-opacity="0.21"/></g></mask><clipPath id="d8970c6175"><path d="M 1.246094 0.148438 L 31.820312 0.148438 L 31.820312 57.640625 L 1.246094 57.640625 Z M 1.246094 0.148438 " clip-rule="nonzero"/></clipPath><clipPath id="c770e01a7f"><path d="M 15 26 L 31.820312 26 L 31.820312 57.640625 L 15 57.640625 Z M 15 26 " clip-rule="nonzero"/></clipPath><clipPath id="4e4a9daf76"><rect x="0" width="32" y="0" height="58"/></clipPath><mask id="3b65a62c2e"><g filter="url(#636c7d1b59)"><rect x="-37.5" width="450" fill="#000000" y="-37.499999" height="449.999989" fill-opacity="0.38"/></g></mask><clipPath id="0ff6c095ed"><path d="M 0.535156 1 L 31.28125 1 L 31.28125 58.441406 L 0.535156 58.441406 Z M 0.535156 1 " clip-rule="nonzero"/></clipPath><clipPath id="ea00ae345c"><path d="M 0.535156 26 L 18 26 L 18 58.441406 L 0.535156 58.441406 Z M 0.535156 26 " clip-rule="nonzero"/></clipPath><clipPath id="92a56398ad"><rect x="0" width="32" y="0" height="59"/></clipPath><mask id="c136487fe3"><g filter="url(#636c7d1b59)"><rect x="-37.5" width="450" fill="#000000" y="-37.499999" height="449.999989" fill-opacity="0.51"/></g></mask><clipPath id="53f8fc74db"><path d="M 0.351562 0.925781 L 14.519531 0.925781 L 14.519531 27.175781 L 0.351562 27.175781 Z M 0.351562 0.925781 " clip-rule="nonzero"/></clipPath><clipPath id="feb4f01bfb"><path d="M 0.351562 12 L 8 12 L 8 27.175781 L 0.351562 27.175781 Z M 0.351562 12 " clip-rule="nonzero"/></clipPath><clipPath id="5a4f223459"><rect x="0" width="15" y="0" height="28"/></clipPath><clipPath id="fbcf2ff36a"><path d="M 118.722656 124.902344 L 155.472656 124.902344 L 155.472656 259.902344 L 118.722656 259.902344 Z M 118.722656 124.902344 " clip-rule="nonzero"/></clipPath><clipPath id="d7a2ffbd82"><path d="M 147 158 L 155.472656 158 L 155.472656 222 L 147 222 Z M 147 158 " clip-rule="nonzero"/></clipPath><clipPath id="e6d7a5b03c"><path d="M 172 180 L 188.707031 180 L 188.707031 189 L 172 189 Z M 172 180 " clip-rule="nonzero"/></clipPath><clipPath id="766f8cbc22"><path d="M 154.207031 125.410156 L 188.707031 125.410156 L 188.707031 259.660156 L 154.207031 259.660156 Z M 154.207031 125.410156 " clip-rule="nonzero"/></clipPath><clipPath id="45870a4aae"><path d="M 154.207031 158 L 160 158 L 160 222 L 154.207031 222 Z M 154.207031 158 " clip-rule="nonzero"/></clipPath><clipPath id="fa9bef5dd0"><path d="M 214 210 L 229.175781 210 L 229.175781 234 L 214 234 Z M 214 210 " clip-rule="nonzero"/></clipPath><clipPath id="964f19edca"><path d="M 187.925781 180 L 204 180 L 204 189 L 187.925781 189 Z M 187.925781 180 " clip-rule="nonzero"/></clipPath><clipPath id="22d3a80fed"><path d="M 187.925781 125.75 L 229 125.75 L 229 259.902344 L 187.925781 259.902344 Z M 187.925781 125.75 " clip-rule="nonzero"/></clipPath><clipPath id="eaea4ae85d"><path d="M 194.824219 123.328125 L 208.511719 123.328125 L 208.511719 137.019531 L 194.824219 137.019531 Z M 194.824219 123.328125 " clip-rule="nonzero"/></clipPath><clipPath id="978bfde5d7"><path d="M 201.667969 123.328125 C 197.886719 123.328125 194.824219 126.394531 194.824219 130.175781 C 194.824219 133.953125 197.886719 137.019531 201.667969 137.019531 C 205.445312 137.019531 208.511719 133.953125 208.511719 130.175781 C 208.511719 126.394531 205.445312 123.328125 201.667969 123.328125 Z M 201.667969 123.328125 " clip-rule="nonzero"/></clipPath><mask id="a13516ddaf"><g filter="url(#636c7d1b59)"><rect x="-37.5" width="450" fill="#000000" y="-37.499999" height="449.999989" fill-opacity="0.26"/></g></mask><clipPath id="da9d5f7da5"><path d="M 0.519531 74 L 7 74 L 7 76 L 0.519531 76 Z M 0.519531 74 " clip-rule="nonzero"/></clipPath><clipPath id="8f25167211"><path d="M 0.519531 66 L 7 66 L 7 74 L 0.519531 74 Z M 0.519531 66 " clip-rule="nonzero"/></clipPath><clipPath id="7438f69afb"><path d="M 0.519531 59 L 7 59 L 7 66 L 0.519531 66 Z M 0.519531 59 " clip-rule="nonzero"/></clipPath><clipPath id="34436c9d82"><path d="M 0.519531 52 L 7 52 L 7 59 L 0.519531 59 Z M 0.519531 52 " clip-rule="nonzero"/></clipPath><clipPath id="963f1a75dd"><path d="M 0.519531 44 L 7 44 L 7 53 L 0.519531 53 Z M 0.519531 44 " clip-rule="nonzero"/></clipPath><clipPath id="648919f564"><path d="M 0.519531 35 L 7 35 L 7 44 L 0.519531 44 Z M 0.519531 35 " clip-rule="nonzero"/></clipPath><clipPath id="a9487728ee"><path d="M 0.519531 28 L 7 28 L 7 36 L 0.519531 36 Z M 0.519531 28 " clip-rule="nonzero"/></clipPath><clipPath id="a3058d207e"><path d="M 0.519531 21 L 7 21 L 7 28 L 0.519531 28 Z M 0.519531 21 " clip-rule="nonzero"/></clipPath><clipPath id="ba315ee853"><path d="M 0.519531 19 L 7 19 L 7 21 L 0.519531 21 Z M 0.519531 19 " clip-rule="nonzero"/></clipPath><clipPath id="35dd4d88b6"><path d="M 0.519531 10 L 7 10 L 7 19 L 0.519531 19 Z M 0.519531 10 " clip-rule="nonzero"/></clipPath><clipPath id="ea58194b96"><path d="M 0.519531 2 L 7 2 L 7 10 L 0.519531 10 Z M 0.519531 2 " clip-rule="nonzero"/></clipPath><clipPath id="56210c8de9"><rect x="0" width="9" y="0" height="77"/></clipPath></defs><g mask="url(#17318a5a83)"><g transform="matrix(1, 0, 0, 1, 167, 202)"><g clip-path="url(#ac12ba2256)"><g clip-path="url(#36dc838e50)"><path fill="#545454" d="M 13.304688 57.679688 C 13.304688 57.679688 12.546875 36.285156 12.480469 34.570312 C 12.386719 32.207031 11.789062 21.902344 11.792969 21.683594 C 11.800781 21.304688 11.804688 21.292969 11.90625 21.292969 C 12.234375 21.335938 12.53125 21.5 12.859375 21.539062 C 13.316406 21.4375 13.75 21.195312 14.132812 20.933594 C 14.367188 20.667969 14.21875 20.222656 14.097656 19.902344 C 14.070312 19.828125 13.957031 19.617188 13.890625 19.40625 C 13.507812 18.214844 13.558594 18.324219 13.324219 18.199219 C 12.9375 18.078125 12.570312 18.386719 12.273438 18.617188 L 12.109375 18.75 C 11.667969 18.578125 11.199219 18.496094 10.773438 18.296875 C 10.761719 18.289062 10.839844 18.191406 10.949219 18.082031 C 11.128906 17.898438 11.484375 17.664062 12.171875 17.28125 C 12.300781 17.207031 13.632812 16.183594 14.011719 15.832031 C 14.4375 15.429688 14.835938 15.027344 15.863281 13.960938 C 17.167969 12.597656 17.835938 11.933594 20.832031 9.027344 C 21.15625 8.710938 23.585938 6.507812 23.816406 6.300781 C 24.238281 5.921875 29.914062 1.046875 30.066406 0.914062 C 30.367188 0.652344 30.433594 0.558594 30.394531 0.457031 C 30.328125 0.289062 29.691406 0.515625 29.085938 0.925781 C 28.910156 1.046875 23.171875 5.542969 22.835938 5.804688 C 22.675781 5.929688 19.417969 8.660156 19.226562 8.796875 C 19.007812 8.949219 15.824219 11.710938 15.480469 12.039062 C 15.292969 12.21875 11.027344 15.976562 10.261719 16.660156 C 9.859375 17.019531 9.582031 17.234375 9.460938 17.277344 C 9.359375 17.316406 9.25 17.363281 9.226562 17.382812 C 9.199219 17.402344 9.128906 17.429688 9.074219 17.445312 C 8.941406 17.476562 8.683594 17.261719 8.640625 17.085938 C 8.582031 16.855469 7.949219 15.617188 7.777344 15.394531 C 7.488281 15.023438 4.972656 12.90625 4.730469 12.722656 C 4.492188 12.539062 1.820312 10.4375 1.722656 10.355469 C 0.953125 9.714844 0.464844 9.34375 0.363281 9.320312 C 0.273438 9.300781 0.226562 9.398438 0.226562 9.609375 C 0.226562 9.832031 0.453125 10.207031 0.882812 10.6875 C 1.039062 10.863281 3.480469 13.734375 3.648438 13.910156 C 3.8125 14.082031 6.210938 16.769531 6.699219 17.257812 L 7.589844 18.152344 L 7.628906 18.410156 C 7.699219 18.875 7.742188 18.984375 7.910156 19.167969 C 8.019531 19.304688 8.035156 19.46875 8.011719 19.636719 C 7.992188 19.78125 7.929688 20.136719 7.828125 20.507812 C 7.796875 20.628906 6.878906 24.074219 6.847656 24.230469 C 6.808594 24.417969 4.492188 31.226562 4.441406 31.386719 C 4.390625 31.546875 2.433594 38.609375 2.402344 38.746094 C 1.835938 40.8125 1.390625 42.910156 0.914062 45.003906 C 0.863281 45.238281 0.769531 45.835938 0.722656 46.261719 C 0.726562 46.300781 0.75 46.328125 0.789062 46.328125 C 0.824219 46.328125 0.867188 46.292969 0.882812 46.25 C 0.894531 46.203125 0.976562 45.988281 1.066406 45.765625 C 1.273438 45.226562 1.453125 44.675781 1.617188 44.066406 C 1.6875 43.792969 2.886719 39.578125 3.007812 39.148438 C 3.132812 38.714844 5.210938 31.882812 5.339844 31.476562 C 5.980469 29.457031 7.734375 24.359375 7.988281 23.78125 C 8.421875 22.75 8.792969 21.691406 9.246094 20.671875 C 9.390625 20.363281 9.46875 20.273438 9.566406 20.203125 C 9.664062 20.132812 9.765625 20.082031 9.789062 20.089844 C 9.8125 20.097656 9.886719 20.234375 9.953125 20.394531 C 10.074219 20.683594 10.074219 20.695312 10.058594 21.5625 C 10.050781 22.042969 9.351562 34.5625 9.335938 35.289062 L 8.78125 57.675781 Z M 13.304688 57.679688 " fill-opacity="1" fill-rule="nonzero"/></g><g clip-path="url(#51cbcb28fb)"><path fill="#545454" d="M 21.355469 57.445312 C 21.355469 57.445312 20.9375 45.753906 20.902344 44.820312 C 20.851562 43.527344 20.523438 37.898438 20.527344 37.78125 C 20.527344 37.574219 20.53125 37.566406 20.585938 37.566406 C 20.765625 37.589844 20.929688 37.679688 21.113281 37.699219 C 21.363281 37.648438 21.601562 37.511719 21.8125 37.371094 C 21.941406 37.222656 21.859375 36.980469 21.792969 36.804688 C 21.777344 36.765625 21.714844 36.652344 21.679688 36.535156 C 21.46875 35.886719 21.496094 35.945312 21.367188 35.878906 C 21.152344 35.808594 20.953125 35.980469 20.789062 36.105469 L 20.699219 36.175781 C 20.457031 36.082031 20.199219 36.039062 19.964844 35.929688 C 19.957031 35.925781 20 35.871094 20.0625 35.8125 C 20.160156 35.710938 20.355469 35.585938 20.734375 35.375 C 20.804688 35.335938 21.535156 34.777344 21.742188 34.582031 C 21.980469 34.363281 22.199219 34.144531 22.761719 33.5625 C 23.480469 32.816406 23.847656 32.453125 25.496094 30.867188 C 25.671875 30.695312 27.007812 29.488281 27.136719 29.375 C 27.367188 29.167969 30.488281 26.507812 30.570312 26.433594 C 30.738281 26.289062 30.773438 26.238281 30.753906 26.183594 C 30.714844 26.089844 30.367188 26.214844 30.035156 26.441406 C 29.9375 26.507812 26.78125 28.960938 26.597656 29.105469 C 26.507812 29.175781 24.714844 30.664062 24.613281 30.738281 C 24.492188 30.824219 22.742188 32.332031 22.550781 32.511719 C 22.449219 32.609375 20.105469 34.660156 19.683594 35.035156 C 19.460938 35.234375 19.308594 35.351562 19.242188 35.375 C 19.1875 35.394531 19.128906 35.417969 19.113281 35.429688 C 19.097656 35.441406 19.058594 35.457031 19.027344 35.464844 C 18.957031 35.480469 18.816406 35.363281 18.789062 35.269531 C 18.757812 35.144531 18.410156 34.464844 18.316406 34.34375 C 18.15625 34.140625 16.773438 32.984375 16.640625 32.882812 C 16.511719 32.785156 15.042969 31.636719 14.988281 31.589844 C 14.5625 31.242188 14.296875 31.039062 14.238281 31.027344 C 14.191406 31.015625 14.164062 31.070312 14.164062 31.183594 C 14.164062 31.304688 14.289062 31.511719 14.523438 31.773438 C 14.613281 31.871094 15.953125 33.4375 16.046875 33.53125 C 16.136719 33.628906 17.457031 35.09375 17.726562 35.363281 L 18.214844 35.851562 L 18.234375 35.992188 C 18.273438 36.246094 18.296875 36.304688 18.390625 36.40625 C 18.449219 36.480469 18.457031 36.570312 18.445312 36.660156 C 18.4375 36.742188 18.402344 36.9375 18.34375 37.136719 C 18.328125 37.203125 17.824219 39.085938 17.804688 39.171875 C 17.78125 39.273438 16.511719 42.992188 16.480469 43.082031 C 16.453125 43.167969 15.378906 47.027344 15.363281 47.101562 C 15.050781 48.230469 14.804688 49.378906 14.542969 50.519531 C 14.515625 50.648438 14.464844 50.972656 14.4375 51.207031 C 14.441406 51.226562 14.453125 51.242188 14.472656 51.242188 C 14.496094 51.242188 14.515625 51.222656 14.523438 51.199219 C 14.53125 51.175781 14.578125 51.058594 14.625 50.9375 C 14.742188 50.640625 14.839844 50.339844 14.929688 50.007812 C 14.96875 49.859375 15.628906 47.554688 15.695312 47.320312 C 15.761719 47.085938 16.90625 43.351562 16.976562 43.128906 C 17.328125 42.027344 18.292969 39.242188 18.433594 38.925781 C 18.671875 38.363281 18.875 37.785156 19.125 37.226562 C 19.203125 37.058594 19.246094 37.007812 19.300781 36.96875 C 19.355469 36.933594 19.410156 36.90625 19.421875 36.910156 C 19.4375 36.914062 19.476562 36.988281 19.511719 37.078125 C 19.578125 37.234375 19.578125 37.242188 19.570312 37.714844 C 19.566406 37.976562 19.183594 44.816406 19.171875 45.214844 L 18.871094 57.445312 Z M 21.355469 57.445312 " fill-opacity="1" fill-rule="nonzero"/></g></g></g></g><g mask="url(#40bb7e3558)"><g transform="matrix(1, 0, 0, 1, 126, 185)"><g clip-path="url(#4e4a9daf76)"><g clip-path="url(#d8970c6175)"><path fill="#545454" d="M 14.335938 57.539062 C 14.335938 57.539062 13.574219 36.140625 13.507812 34.429688 C 13.417969 32.066406 12.820312 21.757812 12.824219 21.542969 C 12.828125 21.164062 12.832031 21.148438 12.933594 21.148438 C 13.261719 21.191406 13.5625 21.359375 13.890625 21.398438 C 14.347656 21.296875 14.777344 21.050781 15.164062 20.789062 C 15.398438 20.523438 15.25 20.082031 15.125 19.761719 C 15.097656 19.6875 14.988281 19.476562 14.921875 19.265625 C 14.539062 18.074219 14.589844 18.179688 14.355469 18.058594 C 13.964844 17.9375 13.601562 18.246094 13.300781 18.476562 L 13.140625 18.609375 C 12.699219 18.4375 12.230469 18.355469 11.800781 18.15625 C 11.789062 18.148438 11.871094 18.050781 11.980469 17.9375 C 12.160156 17.753906 12.511719 17.523438 13.203125 17.136719 C 13.332031 17.066406 14.660156 16.042969 15.039062 15.691406 C 15.46875 15.289062 15.867188 14.886719 16.890625 13.820312 C 18.199219 12.457031 18.863281 11.792969 21.859375 8.886719 C 22.1875 8.570312 24.617188 6.367188 24.84375 6.160156 C 25.269531 5.777344 30.945312 0.90625 31.09375 0.773438 C 31.394531 0.511719 31.460938 0.417969 31.421875 0.316406 C 31.359375 0.144531 30.71875 0.375 30.117188 0.785156 C 29.9375 0.90625 24.203125 5.402344 23.867188 5.664062 C 23.707031 5.789062 20.445312 8.519531 20.253906 8.65625 C 20.039062 8.808594 16.855469 11.570312 16.507812 11.898438 C 16.320312 12.074219 12.058594 15.832031 11.292969 16.519531 C 10.890625 16.878906 10.609375 17.09375 10.488281 17.136719 C 10.386719 17.171875 10.28125 17.21875 10.253906 17.242188 C 10.226562 17.261719 10.160156 17.289062 10.101562 17.304688 C 9.972656 17.335938 9.710938 17.121094 9.667969 16.945312 C 9.609375 16.714844 8.976562 15.472656 8.808594 15.253906 C 8.515625 14.882812 6 12.765625 5.761719 12.582031 C 5.523438 12.394531 2.851562 10.292969 2.753906 10.214844 C 1.980469 9.570312 1.496094 9.203125 1.390625 9.179688 C 1.300781 9.160156 1.257812 9.257812 1.253906 9.46875 C 1.253906 9.691406 1.484375 10.066406 1.910156 10.546875 C 2.066406 10.722656 4.507812 13.59375 4.675781 13.765625 C 4.84375 13.941406 7.242188 16.628906 7.730469 17.117188 L 8.621094 18.007812 L 8.660156 18.265625 C 8.730469 18.734375 8.769531 18.84375 8.9375 19.027344 C 9.046875 19.160156 9.0625 19.328125 9.042969 19.496094 C 9.023438 19.640625 8.960938 19.996094 8.859375 20.363281 C 8.824219 20.488281 7.910156 23.933594 7.875 24.089844 C 7.835938 24.277344 5.523438 31.085938 5.46875 31.246094 C 5.417969 31.40625 3.464844 38.46875 3.433594 38.601562 C 2.867188 40.671875 2.417969 42.769531 1.945312 44.863281 C 1.894531 45.097656 1.796875 45.695312 1.753906 46.117188 C 1.757812 46.160156 1.777344 46.183594 1.816406 46.183594 C 1.855469 46.183594 1.898438 46.148438 1.910156 46.105469 C 1.925781 46.0625 2.007812 45.847656 2.09375 45.625 C 2.304688 45.085938 2.480469 44.535156 2.644531 43.925781 C 2.71875 43.652344 3.914062 39.4375 4.039062 39.007812 C 4.160156 38.574219 6.242188 31.742188 6.371094 31.335938 C 7.011719 29.316406 8.765625 24.21875 9.019531 23.640625 C 9.449219 22.609375 9.820312 21.550781 10.277344 20.53125 C 10.421875 20.222656 10.496094 20.128906 10.597656 20.058594 C 10.695312 19.992188 10.792969 19.941406 10.816406 19.949219 C 10.84375 19.957031 10.917969 20.09375 10.984375 20.253906 C 11.101562 20.539062 11.101562 20.554688 11.085938 21.417969 C 11.078125 21.902344 10.382812 34.421875 10.363281 35.148438 L 9.8125 57.535156 Z M 14.335938 57.539062 " fill-opacity="1" fill-rule="nonzero"/></g><g clip-path="url(#c770e01a7f)"><path fill="#545454" d="M 22.386719 57.304688 C 22.386719 57.304688 21.96875 45.613281 21.929688 44.679688 C 21.878906 43.386719 21.554688 37.757812 21.554688 37.640625 C 21.558594 37.433594 21.558594 37.425781 21.617188 37.425781 C 21.796875 37.449219 21.960938 37.539062 22.140625 37.558594 C 22.390625 37.503906 22.628906 37.371094 22.839844 37.226562 C 22.96875 37.082031 22.886719 36.839844 22.820312 36.664062 C 22.804688 36.625 22.746094 36.507812 22.707031 36.394531 C 22.496094 35.746094 22.523438 35.800781 22.398438 35.734375 C 22.183594 35.667969 21.980469 35.839844 21.816406 35.964844 L 21.726562 36.035156 C 21.488281 35.941406 21.226562 35.898438 20.992188 35.789062 C 20.988281 35.785156 21.03125 35.730469 21.089844 35.667969 C 21.191406 35.570312 21.382812 35.441406 21.761719 35.234375 C 21.832031 35.195312 22.566406 34.632812 22.773438 34.441406 C 23.007812 34.222656 23.226562 34.003906 23.789062 33.417969 C 24.511719 32.675781 24.875 32.3125 26.523438 30.726562 C 26.703125 30.550781 28.039062 29.347656 28.164062 29.234375 C 28.398438 29.027344 31.519531 26.363281 31.601562 26.292969 C 31.765625 26.148438 31.804688 26.097656 31.78125 26.042969 C 31.746094 25.949219 31.394531 26.074219 31.0625 26.300781 C 30.964844 26.363281 27.8125 28.820312 27.625 28.964844 C 27.539062 29.03125 25.746094 30.523438 25.640625 30.597656 C 25.523438 30.683594 23.769531 32.191406 23.582031 32.367188 C 23.476562 32.46875 21.132812 34.519531 20.710938 34.894531 C 20.492188 35.089844 20.339844 35.207031 20.269531 35.230469 C 20.214844 35.253906 20.15625 35.277344 20.140625 35.289062 C 20.128906 35.300781 20.089844 35.316406 20.058594 35.324219 C 19.988281 35.339844 19.84375 35.222656 19.820312 35.128906 C 19.789062 35 19.441406 34.324219 19.347656 34.203125 C 19.1875 34 17.804688 32.84375 17.671875 32.742188 C 17.539062 32.640625 16.070312 31.492188 16.019531 31.449219 C 15.59375 31.097656 15.328125 30.898438 15.269531 30.886719 C 15.21875 30.875 15.195312 30.925781 15.195312 31.042969 C 15.195312 31.164062 15.320312 31.371094 15.554688 31.632812 C 15.640625 31.726562 16.984375 33.296875 17.074219 33.390625 C 17.167969 33.484375 18.484375 34.953125 18.753906 35.222656 L 19.242188 35.707031 L 19.265625 35.847656 C 19.304688 36.105469 19.324219 36.164062 19.417969 36.265625 C 19.480469 36.339844 19.488281 36.429688 19.476562 36.519531 C 19.464844 36.597656 19.429688 36.792969 19.375 36.996094 C 19.355469 37.0625 18.851562 38.945312 18.835938 39.03125 C 18.8125 39.132812 17.539062 42.851562 17.511719 42.9375 C 17.484375 43.027344 16.40625 46.882812 16.390625 46.957031 C 16.078125 48.089844 15.832031 49.234375 15.574219 50.378906 C 15.542969 50.507812 15.492188 50.832031 15.46875 51.066406 C 15.46875 51.085938 15.480469 51.101562 15.503906 51.101562 C 15.523438 51.101562 15.546875 51.082031 15.554688 51.058594 C 15.5625 51.035156 15.605469 50.914062 15.65625 50.792969 C 15.769531 50.5 15.867188 50.199219 15.957031 49.867188 C 16 49.714844 16.65625 47.414062 16.722656 47.179688 C 16.792969 46.941406 17.933594 43.210938 18.007812 42.988281 C 18.359375 41.886719 19.324219 39.101562 19.460938 38.785156 C 19.699219 38.222656 19.902344 37.644531 20.152344 37.085938 C 20.234375 36.917969 20.273438 36.867188 20.332031 36.828125 C 20.382812 36.789062 20.4375 36.761719 20.453125 36.769531 C 20.464844 36.773438 20.507812 36.847656 20.542969 36.933594 C 20.609375 37.089844 20.609375 37.097656 20.601562 37.570312 C 20.59375 37.835938 20.210938 44.671875 20.203125 45.070312 L 19.898438 57.300781 Z M 22.386719 57.304688 " fill-opacity="1" fill-rule="nonzero"/></g></g></g></g><g mask="url(#3b65a62c2e)"><g transform="matrix(1, 0, 0, 1, 142, 195)"><g clip-path="url(#92a56398ad)"><g clip-path="url(#0ff6c095ed)"><path fill="#737373" d="M 18.023438 58.28125 C 18.023438 58.28125 18.78125 36.882812 18.847656 35.171875 C 18.941406 32.808594 19.535156 22.5 19.53125 22.285156 C 19.527344 21.90625 19.523438 21.890625 19.421875 21.890625 C 19.09375 21.933594 18.796875 22.101562 18.464844 22.140625 C 18.007812 22.039062 17.578125 21.792969 17.191406 21.53125 C 16.957031 21.265625 17.105469 20.824219 17.230469 20.503906 C 17.257812 20.429688 17.367188 20.21875 17.4375 20.007812 C 17.816406 18.816406 17.769531 18.921875 18 18.800781 C 18.390625 18.675781 18.757812 18.988281 19.054688 19.21875 L 19.21875 19.347656 C 19.65625 19.179688 20.128906 19.097656 20.554688 18.898438 C 20.566406 18.890625 20.484375 18.792969 20.375 18.679688 C 20.195312 18.496094 19.84375 18.265625 19.15625 17.878906 C 19.027344 17.808594 17.695312 16.785156 17.316406 16.433594 C 16.886719 16.03125 16.488281 15.628906 15.464844 14.5625 C 14.15625 13.195312 13.492188 12.535156 10.496094 9.628906 C 10.167969 9.3125 7.742188 7.109375 7.511719 6.902344 C 7.089844 6.519531 1.414062 1.648438 1.261719 1.515625 C 0.960938 1.253906 0.894531 1.160156 0.933594 1.058594 C 1 0.886719 1.636719 1.117188 2.242188 1.527344 C 2.417969 1.648438 8.152344 6.144531 8.488281 6.40625 C 8.648438 6.53125 11.910156 9.261719 12.101562 9.398438 C 12.316406 9.550781 15.503906 12.3125 15.847656 12.636719 C 16.035156 12.816406 20.296875 16.574219 21.066406 17.261719 C 21.464844 17.621094 21.746094 17.835938 21.867188 17.878906 C 21.96875 17.914062 22.074219 17.960938 22.101562 17.984375 C 22.128906 18.003906 22.199219 18.03125 22.253906 18.046875 C 22.382812 18.078125 22.644531 17.863281 22.6875 17.6875 C 22.746094 17.457031 23.378906 16.214844 23.550781 15.996094 C 23.839844 15.625 26.355469 13.507812 26.59375 13.324219 C 26.835938 13.136719 29.507812 11.035156 29.601562 10.957031 C 30.375 10.3125 30.859375 9.945312 30.964844 9.921875 C 31.054688 9.902344 31.101562 10 31.101562 10.207031 C 31.101562 10.433594 30.875 10.808594 30.445312 11.289062 C 30.289062 11.464844 27.847656 14.335938 27.679688 14.507812 C 27.511719 14.683594 25.117188 17.371094 24.625 17.859375 L 23.738281 18.75 L 23.699219 19.007812 C 23.628906 19.476562 23.585938 19.585938 23.417969 19.769531 C 23.308594 19.902344 23.292969 20.070312 23.3125 20.238281 C 23.332031 20.382812 23.394531 20.738281 23.496094 21.105469 C 23.53125 21.230469 24.449219 24.675781 24.480469 24.832031 C 24.519531 25.019531 26.835938 31.828125 26.886719 31.988281 C 26.9375 32.148438 28.890625 39.210938 28.925781 39.34375 C 29.488281 41.414062 29.9375 43.511719 30.414062 45.605469 C 30.464844 45.839844 30.558594 46.4375 30.605469 46.859375 C 30.601562 46.902344 30.578125 46.925781 30.539062 46.925781 C 30.5 46.925781 30.460938 46.890625 30.445312 46.847656 C 30.429688 46.804688 30.347656 46.589844 30.261719 46.367188 C 30.054688 45.828125 29.875 45.277344 29.710938 44.667969 C 29.636719 44.394531 28.441406 40.179688 28.316406 39.75 C 28.195312 39.316406 26.113281 32.484375 25.984375 32.078125 C 25.347656 30.058594 23.59375 24.960938 23.335938 24.382812 C 22.90625 23.351562 22.535156 22.292969 22.078125 21.273438 C 21.9375 20.964844 21.859375 20.871094 21.757812 20.800781 C 21.660156 20.734375 21.5625 20.683594 21.539062 20.691406 C 21.515625 20.699219 21.441406 20.835938 21.375 20.996094 C 21.253906 21.28125 21.253906 21.296875 21.269531 22.160156 C 21.277344 22.644531 21.972656 35.164062 21.992188 35.890625 L 22.542969 58.277344 Z M 18.023438 58.28125 " fill-opacity="1" fill-rule="nonzero"/></g><g clip-path="url(#ea00ae345c)"><path fill="#737373" d="M 9.972656 58.046875 C 9.972656 58.046875 10.386719 46.355469 10.425781 45.421875 C 10.476562 44.128906 10.804688 38.5 10.800781 38.382812 C 10.796875 38.171875 10.796875 38.167969 10.742188 38.167969 C 10.558594 38.191406 10.394531 38.28125 10.214844 38.300781 C 9.964844 38.246094 9.726562 38.113281 9.515625 37.96875 C 9.386719 37.824219 9.46875 37.582031 9.535156 37.40625 C 9.550781 37.367188 9.613281 37.25 9.648438 37.136719 C 9.859375 36.488281 9.832031 36.542969 9.960938 36.476562 C 10.171875 36.410156 10.375 36.582031 10.539062 36.707031 L 10.628906 36.777344 C 10.871094 36.683594 11.128906 36.640625 11.363281 36.53125 C 11.371094 36.527344 11.324219 36.472656 11.265625 36.410156 C 11.167969 36.3125 10.972656 36.183594 10.59375 35.976562 C 10.523438 35.933594 9.789062 35.375 9.582031 35.183594 C 9.347656 34.964844 9.128906 34.746094 8.566406 34.160156 C 7.847656 33.417969 7.480469 33.054688 5.832031 31.46875 C 5.652344 31.292969 4.316406 30.089844 4.191406 29.976562 C 3.960938 29.769531 0.839844 27.105469 0.753906 27.035156 C 0.589844 26.890625 0.554688 26.839844 0.574219 26.785156 C 0.609375 26.691406 0.960938 26.816406 1.292969 27.042969 C 1.390625 27.105469 4.542969 29.5625 4.730469 29.707031 C 4.816406 29.773438 6.609375 31.265625 6.714844 31.339844 C 6.835938 31.425781 8.585938 32.933594 8.773438 33.109375 C 8.878906 33.207031 11.222656 35.261719 11.644531 35.636719 C 11.863281 35.832031 12.019531 35.949219 12.085938 35.972656 C 12.140625 35.992188 12.199219 36.019531 12.214844 36.03125 C 12.230469 36.042969 12.265625 36.058594 12.296875 36.066406 C 12.371094 36.082031 12.511719 35.964844 12.535156 35.871094 C 12.566406 35.742188 12.917969 35.066406 13.011719 34.945312 C 13.167969 34.742188 14.554688 33.585938 14.683594 33.484375 C 14.816406 33.382812 16.285156 32.234375 16.339844 32.191406 C 16.761719 31.839844 17.03125 31.640625 17.085938 31.628906 C 17.136719 31.617188 17.160156 31.667969 17.164062 31.785156 C 17.164062 31.90625 17.039062 32.109375 16.800781 32.375 C 16.714844 32.46875 15.375 34.039062 15.28125 34.132812 C 15.191406 34.226562 13.871094 35.695312 13.601562 35.964844 L 13.113281 36.449219 L 13.09375 36.589844 C 13.054688 36.847656 13.03125 36.90625 12.9375 37.007812 C 12.878906 37.082031 12.867188 37.171875 12.882812 37.261719 C 12.890625 37.339844 12.925781 37.535156 12.980469 37.738281 C 13 37.804688 13.503906 39.6875 13.523438 39.773438 C 13.542969 39.875 14.816406 43.59375 14.84375 43.679688 C 14.875 43.769531 15.949219 47.625 15.964844 47.699219 C 16.277344 48.832031 16.523438 49.976562 16.785156 51.121094 C 16.8125 51.25 16.863281 51.574219 16.890625 51.804688 C 16.886719 51.828125 16.875 51.84375 16.855469 51.84375 C 16.832031 51.84375 16.808594 51.824219 16.800781 51.800781 C 16.792969 51.777344 16.75 51.65625 16.703125 51.535156 C 16.585938 51.242188 16.488281 50.941406 16.398438 50.609375 C 16.359375 50.457031 15.699219 48.15625 15.632812 47.921875 C 15.5625 47.683594 14.421875 43.953125 14.351562 43.730469 C 14 42.628906 13.035156 39.84375 12.894531 39.527344 C 12.65625 38.964844 12.453125 38.386719 12.203125 37.828125 C 12.121094 37.660156 12.082031 37.609375 12.027344 37.570312 C 11.972656 37.53125 11.917969 37.503906 11.90625 37.511719 C 11.890625 37.515625 11.851562 37.589844 11.8125 37.675781 C 11.75 37.832031 11.746094 37.839844 11.757812 38.3125 C 11.761719 38.578125 12.144531 45.414062 12.152344 45.8125 L 12.457031 58.042969 Z M 9.972656 58.046875 " fill-opacity="1" fill-rule="nonzero"/></g></g></g></g><g mask="url(#c136487fe3)"><g transform="matrix(1, 0, 0, 1, 195, 226)"><g clip-path="url(#5a4f223459)"><g clip-path="url(#53f8fc74db)"><path fill="#737373" d="M 8.382812 27.289062 C 8.382812 27.289062 8.730469 17.460938 8.761719 16.671875 C 8.804688 15.585938 9.078125 10.851562 9.078125 10.753906 C 9.074219 10.578125 9.070312 10.574219 9.027344 10.574219 C 8.875 10.59375 8.738281 10.667969 8.585938 10.6875 C 8.378906 10.640625 8.179688 10.527344 8 10.40625 C 7.894531 10.285156 7.960938 10.082031 8.019531 9.933594 C 8.03125 9.902344 8.082031 9.804688 8.113281 9.707031 C 8.289062 9.160156 8.265625 9.210938 8.375 9.152344 C 8.550781 9.097656 8.71875 9.238281 8.855469 9.34375 L 8.933594 9.40625 C 9.132812 9.328125 9.351562 9.289062 9.546875 9.199219 C 9.550781 9.195312 9.515625 9.148438 9.464844 9.097656 C 9.382812 9.015625 9.21875 8.90625 8.902344 8.730469 C 8.84375 8.695312 8.230469 8.226562 8.058594 8.066406 C 7.863281 7.878906 7.679688 7.695312 7.207031 7.207031 C 6.609375 6.578125 6.300781 6.273438 4.925781 4.941406 C 4.777344 4.792969 3.660156 3.78125 3.554688 3.6875 C 3.359375 3.511719 0.753906 1.273438 0.683594 1.210938 C 0.546875 1.09375 0.515625 1.050781 0.53125 1.003906 C 0.5625 0.925781 0.855469 1.027344 1.132812 1.21875 C 1.214844 1.273438 3.847656 3.339844 4.003906 3.457031 C 4.078125 3.515625 5.574219 4.769531 5.664062 4.832031 C 5.761719 4.902344 7.226562 6.171875 7.382812 6.320312 C 7.46875 6.40625 9.429688 8.128906 9.78125 8.445312 C 9.964844 8.609375 10.09375 8.710938 10.148438 8.730469 C 10.195312 8.746094 10.246094 8.769531 10.257812 8.777344 C 10.269531 8.785156 10.300781 8.800781 10.328125 8.804688 C 10.386719 8.820312 10.503906 8.722656 10.527344 8.640625 C 10.550781 8.535156 10.84375 7.964844 10.921875 7.863281 C 11.054688 7.695312 12.210938 6.722656 12.320312 6.636719 C 12.429688 6.550781 13.65625 5.585938 13.703125 5.550781 C 14.058594 5.253906 14.28125 5.085938 14.328125 5.074219 C 14.367188 5.066406 14.390625 5.109375 14.390625 5.207031 C 14.390625 5.308594 14.285156 5.480469 14.089844 5.703125 C 14.015625 5.78125 12.894531 7.101562 12.820312 7.179688 C 12.742188 7.261719 11.640625 8.496094 11.417969 8.722656 L 11.007812 9.128906 L 10.988281 9.25 C 10.957031 9.460938 10.9375 9.511719 10.863281 9.597656 C 10.8125 9.660156 10.804688 9.734375 10.8125 9.8125 C 10.824219 9.878906 10.851562 10.042969 10.898438 10.210938 C 10.914062 10.269531 11.335938 11.851562 11.347656 11.921875 C 11.367188 12.007812 12.429688 15.136719 12.453125 15.210938 C 12.476562 15.285156 13.375 18.527344 13.390625 18.589844 C 13.652344 19.539062 13.855469 20.503906 14.074219 21.464844 C 14.097656 21.574219 14.140625 21.847656 14.164062 22.042969 C 14.160156 22.0625 14.152344 22.074219 14.132812 22.074219 C 14.117188 22.074219 14.097656 22.058594 14.089844 22.039062 C 14.082031 22.015625 14.046875 21.917969 14.003906 21.816406 C 13.910156 21.570312 13.828125 21.316406 13.753906 21.035156 C 13.71875 20.910156 13.167969 18.972656 13.113281 18.777344 C 13.054688 18.578125 12.101562 15.4375 12.042969 15.25 C 11.746094 14.324219 10.941406 11.984375 10.824219 11.71875 C 10.625 11.242188 10.457031 10.757812 10.246094 10.289062 C 10.179688 10.144531 10.144531 10.105469 10.097656 10.070312 C 10.054688 10.039062 10.007812 10.015625 9.996094 10.019531 C 9.988281 10.023438 9.953125 10.085938 9.921875 10.160156 C 9.867188 10.292969 9.867188 10.300781 9.875 10.695312 C 9.878906 10.917969 10.199219 16.667969 10.207031 17.003906 L 10.460938 27.289062 Z M 8.382812 27.289062 " fill-opacity="1" fill-rule="nonzero"/></g><g clip-path="url(#feb4f01bfb)"><path fill="#737373" d="M 4.683594 27.179688 C 4.683594 27.179688 4.875 21.8125 4.894531 21.382812 C 4.914062 20.789062 5.066406 18.203125 5.066406 18.148438 C 5.0625 18.050781 5.0625 18.050781 5.039062 18.050781 C 4.953125 18.058594 4.878906 18.101562 4.796875 18.109375 C 4.679688 18.085938 4.570312 18.023438 4.476562 17.957031 C 4.414062 17.890625 4.453125 17.78125 4.484375 17.699219 C 4.492188 17.683594 4.519531 17.628906 4.535156 17.574219 C 4.632812 17.277344 4.621094 17.304688 4.679688 17.273438 C 4.777344 17.242188 4.871094 17.320312 4.945312 17.378906 L 4.984375 17.410156 C 5.097656 17.367188 5.214844 17.347656 5.324219 17.296875 C 5.328125 17.296875 5.304688 17.269531 5.277344 17.242188 C 5.234375 17.195312 5.144531 17.140625 4.96875 17.042969 C 4.9375 17.023438 4.601562 16.765625 4.507812 16.679688 C 4.398438 16.578125 4.296875 16.476562 4.039062 16.210938 C 3.707031 15.867188 3.539062 15.699219 2.78125 14.972656 C 2.699219 14.890625 2.085938 14.339844 2.027344 14.285156 C 1.921875 14.191406 0.488281 12.96875 0.449219 12.933594 C 0.375 12.871094 0.359375 12.847656 0.367188 12.820312 C 0.382812 12.777344 0.546875 12.835938 0.699219 12.9375 C 0.742188 12.96875 2.191406 14.097656 2.277344 14.164062 C 2.316406 14.195312 3.140625 14.878906 3.1875 14.914062 C 3.242188 14.953125 4.046875 15.644531 4.136719 15.726562 C 4.183594 15.773438 5.257812 16.714844 5.453125 16.886719 C 5.554688 16.976562 5.625 17.03125 5.65625 17.042969 C 5.679688 17.050781 5.707031 17.0625 5.714844 17.066406 C 5.722656 17.074219 5.738281 17.082031 5.753906 17.082031 C 5.785156 17.089844 5.851562 17.039062 5.863281 16.992188 C 5.878906 16.9375 6.035156 16.625 6.082031 16.570312 C 6.152344 16.476562 6.789062 15.945312 6.851562 15.898438 C 6.910156 15.851562 7.585938 15.324219 7.609375 15.304688 C 7.804688 15.144531 7.925781 15.050781 7.953125 15.042969 C 7.976562 15.039062 7.988281 15.0625 7.988281 15.117188 C 7.988281 15.171875 7.929688 15.265625 7.820312 15.386719 C 7.78125 15.433594 7.164062 16.152344 7.125 16.195312 C 7.082031 16.238281 6.476562 16.914062 6.351562 17.035156 L 6.128906 17.261719 L 6.117188 17.324219 C 6.101562 17.441406 6.089844 17.46875 6.046875 17.515625 C 6.019531 17.550781 6.015625 17.589844 6.019531 17.632812 C 6.027344 17.667969 6.042969 17.757812 6.066406 17.851562 C 6.074219 17.882812 6.308594 18.746094 6.316406 18.785156 C 6.324219 18.832031 6.910156 20.542969 6.921875 20.582031 C 6.9375 20.621094 7.429688 22.394531 7.4375 22.429688 C 7.582031 22.949219 7.695312 23.472656 7.8125 24 C 7.828125 24.058594 7.851562 24.207031 7.863281 24.316406 C 7.859375 24.324219 7.855469 24.332031 7.847656 24.332031 C 7.835938 24.332031 7.824219 24.324219 7.820312 24.3125 C 7.820312 24.300781 7.796875 24.246094 7.777344 24.191406 C 7.722656 24.054688 7.679688 23.917969 7.636719 23.765625 C 7.617188 23.695312 7.316406 22.636719 7.285156 22.53125 C 7.253906 22.421875 6.726562 20.707031 6.695312 20.605469 C 6.535156 20.097656 6.089844 18.820312 6.027344 18.671875 C 5.917969 18.414062 5.824219 18.148438 5.710938 17.894531 C 5.671875 17.816406 5.652344 17.792969 5.628906 17.773438 C 5.605469 17.757812 5.578125 17.746094 5.574219 17.746094 C 5.566406 17.75 5.546875 17.785156 5.53125 17.824219 C 5.5 17.894531 5.5 17.898438 5.503906 18.117188 C 5.507812 18.238281 5.683594 21.378906 5.6875 21.5625 L 5.828125 27.179688 Z M 4.683594 27.179688 " fill-opacity="1" fill-rule="nonzero"/></g></g></g></g><g clip-path="url(#fbcf2ff36a)"><path fill="#000000" d="M 215.742188 247.734375 C 211.324219 249.171875 206.855469 250.355469 202.363281 251.207031 C 197.875 252.058594 193.359375 252.578125 188.871094 252.683594 L 187.191406 252.703125 L 185.511719 252.683594 C 184.957031 252.660156 184.398438 252.648438 183.84375 252.621094 L 183.007812 252.574219 C 182.730469 252.558594 182.453125 252.546875 182.175781 252.519531 L 181.347656 252.453125 C 181.070312 252.433594 180.789062 252.414062 180.527344 252.382812 L 179.726562 252.296875 L 179.324219 252.257812 C 179.1875 252.242188 179.035156 252.21875 178.894531 252.203125 L 178.019531 252.089844 L 177.585938 252.035156 C 177.664062 252.039062 177.578125 252.03125 177.582031 252.03125 L 177.226562 251.976562 C 176.953125 251.9375 176.683594 251.894531 176.410156 251.851562 C 176.140625 251.808594 175.867188 251.761719 175.597656 251.710938 C 171.273438 250.933594 167.035156 249.699219 162.96875 248.046875 C 160.933594 247.230469 158.945312 246.292969 157 245.28125 C 156.511719 245.03125 156.03125 244.769531 155.550781 244.503906 L 155.191406 244.304688 L 154.847656 244.105469 L 154.503906 243.910156 L 154.125 243.6875 C 153.179688 243.132812 152.246094 242.574219 151.332031 241.980469 C 149.503906 240.804688 147.753906 239.527344 146.09375 238.160156 C 144.429688 236.792969 142.859375 235.332031 141.398438 233.777344 C 139.9375 232.222656 138.578125 230.585938 137.347656 228.863281 C 136.113281 227.140625 135.007812 225.332031 134.027344 223.457031 C 132.0625 219.710938 130.644531 215.683594 129.75 211.515625 C 128.863281 207.347656 128.5 203.042969 128.621094 198.71875 C 128.6875 196.558594 128.863281 194.390625 129.148438 192.234375 C 129.4375 190.074219 129.839844 187.925781 130.335938 185.789062 C 131.332031 181.519531 132.738281 177.328125 134.472656 173.261719 C 136.214844 169.199219 138.289062 165.257812 140.667969 161.503906 C 140.964844 161.035156 141.265625 160.566406 141.570312 160.101562 C 141.726562 159.871094 141.875 159.636719 142.035156 159.40625 C 142.1875 159.175781 142.34375 158.941406 142.496094 158.722656 C 143.121094 157.8125 143.796875 156.878906 144.46875 155.964844 C 145.140625 155.050781 145.824219 154.148438 146.515625 153.257812 C 147.210938 152.371094 147.910156 151.496094 148.625 150.632812 C 149.339844 149.773438 150.070312 148.933594 150.8125 148.105469 L 151.371094 147.492188 L 151.9375 146.882812 C 152.125 146.679688 152.316406 146.484375 152.507812 146.285156 L 152.796875 145.988281 C 152.890625 145.886719 152.984375 145.796875 153.078125 145.699219 L 153.359375 145.417969 L 153.5 145.273438 L 153.570312 145.203125 L 153.648438 145.128906 L 154.277344 144.515625 L 154.355469 144.4375 C 154.390625 144.402344 154.351562 144.441406 154.367188 144.425781 L 154.402344 144.394531 L 154.8125 144.007812 L 155.382812 143.503906 C 156.160156 142.832031 156.996094 142.175781 157.863281 141.542969 C 159.605469 140.269531 161.480469 139.078125 163.40625 137.953125 C 163.546875 137.871094 163.683594 137.792969 163.824219 137.710938 C 163.828125 137.832031 163.832031 137.953125 163.835938 138.074219 C 163.921875 140.375 164.007812 142.683594 164.128906 144.996094 C 164.246094 147.3125 164.382812 149.628906 164.554688 151.953125 C 164.730469 154.273438 164.9375 156.601562 165.199219 158.925781 C 165.457031 161.253906 165.769531 163.578125 166.140625 165.898438 C 166.507812 168.21875 166.949219 170.535156 167.457031 172.835938 C 167.964844 175.136719 168.550781 177.421875 169.214844 179.6875 C 169.878906 181.953125 170.632812 184.191406 171.46875 186.402344 L 172.117188 188.074219 L 172.777344 189.664062 L 174.121094 192.839844 C 174.996094 194.941406 175.855469 197.039062 176.644531 199.152344 C 178.230469 203.378906 179.59375 207.671875 180.410156 212.0625 C 180.816406 214.257812 181.089844 216.476562 181.148438 218.703125 C 181.183594 219.816406 181.164062 220.929688 181.089844 222.042969 C 181.015625 223.15625 180.886719 224.265625 180.6875 225.367188 C 180.296875 227.566406 179.652344 229.734375 178.746094 231.808594 C 178.296875 232.847656 177.777344 233.863281 177.199219 234.847656 C 176.628906 235.835938 175.992188 236.785156 175.3125 237.714844 C 176.109375 236.886719 176.859375 236.007812 177.558594 235.085938 C 178.257812 234.164062 178.902344 233.195312 179.488281 232.1875 C 180.660156 230.171875 181.578125 227.992188 182.226562 225.722656 C 182.882812 223.457031 183.257812 221.109375 183.417969 218.75 C 183.574219 216.386719 183.515625 214.015625 183.292969 211.667969 C 183.074219 209.316406 182.691406 206.988281 182.214844 204.6875 C 181.734375 202.390625 181.152344 200.121094 180.503906 197.878906 C 179.855469 195.636719 179.152344 193.421875 178.417969 191.226562 L 177.3125 187.96875 L 176.769531 186.335938 L 176.277344 184.761719 C 175.640625 182.628906 175.078125 180.464844 174.589844 178.292969 C 174.101562 176.117188 173.691406 173.921875 173.339844 171.714844 C 172.992188 169.511719 172.714844 167.292969 172.484375 165.0625 C 172.253906 162.835938 172.085938 160.597656 171.957031 158.351562 C 171.824219 156.109375 171.738281 153.855469 171.683594 151.59375 C 171.628906 149.335938 171.601562 147.066406 171.59375 144.792969 C 171.589844 142.523438 171.59375 140.242188 171.609375 137.957031 L 171.660156 131.082031 L 171.707031 124.917969 L 165.980469 127.457031 L 165.523438 127.660156 L 165.097656 127.855469 L 164.257812 128.246094 C 163.703125 128.507812 163.152344 128.773438 162.605469 129.046875 C 162.398438 129.144531 162.195312 129.25 161.992188 129.351562 C 155.667969 132.953125 147.011719 139.167969 138.375 149.425781 C 132.386719 157.097656 126.554688 167.085938 121.828125 180.050781 C 121.488281 181.199219 121.175781 182.359375 120.886719 183.523438 C 120.289062 185.949219 119.816406 188.410156 119.464844 190.898438 C 119.113281 193.382812 118.882812 195.898438 118.808594 198.421875 C 118.730469 200.949219 118.789062 203.488281 119.003906 206.019531 C 119.21875 208.554688 119.601562 211.082031 120.140625 213.585938 C 120.410156 214.835938 120.722656 216.078125 121.078125 217.3125 C 121.429688 218.542969 121.828125 219.765625 122.269531 220.972656 C 123.148438 223.386719 124.203125 225.742188 125.414062 228.015625 C 126.621094 230.289062 128.007812 232.46875 129.527344 234.539062 C 131.050781 236.609375 132.710938 238.574219 134.5 240.402344 C 136.285156 242.230469 138.191406 243.933594 140.179688 245.507812 C 142.171875 247.082031 144.253906 248.519531 146.398438 249.835938 C 147.46875 250.488281 148.554688 251.121094 149.660156 251.710938 L 150.050781 251.914062 L 150.480469 252.136719 L 150.90625 252.355469 L 151.324219 252.566406 C 151.886719 252.84375 152.449219 253.113281 153.015625 253.378906 C 155.277344 254.4375 157.601562 255.363281 159.960938 256.171875 C 164.691406 257.773438 169.59375 258.871094 174.5625 259.355469 C 174.875 259.386719 175.183594 259.414062 175.496094 259.441406 C 175.804688 259.464844 176.117188 259.492188 176.429688 259.511719 L 176.945312 259.546875 L 177.382812 259.566406 L 178.261719 259.601562 C 178.414062 259.605469 178.550781 259.613281 178.707031 259.617188 L 179.183594 259.628906 L 180.140625 259.648438 C 180.460938 259.65625 180.765625 259.652344 181.074219 259.648438 L 182.003906 259.640625 C 184.476562 259.59375 186.933594 259.414062 189.367188 259.105469 C 194.234375 258.484375 198.988281 257.367188 203.574219 255.859375 C 208.160156 254.347656 212.574219 252.449219 216.800781 250.253906 C 221.023438 248.050781 225.070312 245.5625 228.882812 242.78125 C 224.53125 244.609375 220.164062 246.304688 215.742188 247.734375 " fill-opacity="1" fill-rule="nonzero"/></g><g clip-path="url(#d7a2ffbd82)"><path fill="#000000" d="M 155.082031 158.195312 C 155.082031 158.195312 155.066406 158.257812 155.035156 158.378906 C 155.003906 158.503906 154.960938 158.6875 154.902344 158.929688 C 154.84375 159.167969 154.773438 159.460938 154.691406 159.808594 C 154.613281 160.15625 154.523438 160.554688 154.417969 161 C 154.21875 161.890625 153.984375 162.972656 153.730469 164.210938 C 153.480469 165.453125 153.210938 166.851562 152.945312 168.378906 C 152.675781 169.902344 152.421875 171.554688 152.179688 173.300781 C 151.941406 175.050781 151.730469 176.894531 151.554688 178.800781 C 151.386719 180.707031 151.261719 182.679688 151.195312 184.675781 C 151.128906 186.675781 151.132812 188.703125 151.207031 190.726562 C 151.277344 192.75 151.4375 194.765625 151.667969 196.738281 C 151.902344 198.714844 152.207031 200.644531 152.585938 202.5 C 152.964844 204.359375 153.414062 206.136719 153.90625 207.808594 C 154.402344 209.480469 154.933594 211.046875 155.484375 212.476562 C 155.621094 212.835938 155.757812 213.183594 155.890625 213.527344 C 156.035156 213.867188 156.175781 214.195312 156.308594 214.519531 C 156.375 214.683594 156.4375 214.847656 156.507812 215 C 156.578125 215.15625 156.648438 215.3125 156.714844 215.460938 C 156.851562 215.769531 156.984375 216.0625 157.113281 216.351562 C 157.246094 216.632812 157.375 216.910156 157.503906 217.175781 C 157.628906 217.441406 157.746094 217.699219 157.871094 217.945312 C 157.996094 218.1875 158.113281 218.421875 158.222656 218.648438 C 158.28125 218.761719 158.335938 218.871094 158.386719 218.976562 C 158.441406 219.085938 158.496094 219.1875 158.550781 219.289062 C 158.761719 219.691406 158.953125 220.054688 159.113281 220.371094 C 159.285156 220.683594 159.429688 220.949219 159.546875 221.164062 C 159.78125 221.601562 159.90625 221.832031 159.90625 221.832031 C 159.90625 221.832031 159.859375 221.785156 159.765625 221.699219 C 159.675781 221.609375 159.539062 221.476562 159.363281 221.300781 C 159.191406 221.125 158.972656 220.910156 158.726562 220.648438 C 158.480469 220.386719 158.207031 220.078125 157.894531 219.734375 C 157.738281 219.5625 157.582031 219.378906 157.417969 219.179688 C 157.257812 218.984375 157.085938 218.777344 156.90625 218.558594 C 156.820312 218.449219 156.726562 218.34375 156.636719 218.226562 C 156.550781 218.113281 156.460938 217.992188 156.367188 217.871094 C 156.1875 217.632812 155.996094 217.382812 155.800781 217.121094 C 155.046875 216.070312 154.21875 214.855469 153.425781 213.460938 C 152.632812 212.066406 151.835938 210.515625 151.113281 208.8125 C 150.394531 207.113281 149.738281 205.273438 149.191406 203.332031 C 148.640625 201.390625 148.195312 199.347656 147.875 197.253906 C 147.554688 195.164062 147.351562 193.019531 147.273438 190.875 C 147.199219 188.730469 147.234375 186.585938 147.378906 184.484375 C 147.523438 182.382812 147.769531 180.328125 148.097656 178.355469 C 148.425781 176.386719 148.828125 174.5 149.28125 172.734375 C 149.734375 170.964844 150.234375 169.316406 150.746094 167.8125 C 150.875 167.4375 151.003906 167.070312 151.132812 166.710938 C 151.261719 166.355469 151.390625 166.007812 151.519531 165.667969 C 151.785156 164.996094 152.03125 164.355469 152.289062 163.765625 C 152.789062 162.578125 153.265625 161.558594 153.679688 160.734375 C 153.785156 160.527344 153.882812 160.332031 153.976562 160.148438 C 154.070312 159.96875 154.164062 159.796875 154.246094 159.640625 C 154.417969 159.324219 154.566406 159.058594 154.691406 158.84375 C 154.8125 158.628906 154.914062 158.464844 154.980469 158.359375 C 155.046875 158.25 155.082031 158.195312 155.082031 158.195312 " fill-opacity="1" fill-rule="nonzero"/></g><g clip-path="url(#e6d7a5b03c)"><path fill="#ff3131" d="M 172.058594 188.496094 L 172.058594 180.050781 L 203.75 180.050781 L 203.75 188.496094 L 172.058594 188.496094 " fill-opacity="1" fill-rule="nonzero"/></g><g clip-path="url(#766f8cbc22)"><path fill="#ff3131" d="M 215.742188 247.734375 C 211.324219 249.171875 206.855469 250.355469 202.363281 251.207031 C 197.875 252.058594 193.359375 252.578125 188.871094 252.683594 L 187.191406 252.703125 L 185.511719 252.683594 C 184.957031 252.660156 184.398438 252.648438 183.84375 252.621094 L 183.007812 252.574219 C 182.730469 252.558594 182.453125 252.546875 182.175781 252.519531 L 181.347656 252.453125 C 181.070312 252.433594 180.789062 252.414062 180.527344 252.382812 L 179.726562 252.296875 L 179.324219 252.257812 C 179.1875 252.242188 179.035156 252.21875 178.894531 252.203125 L 178.019531 252.089844 L 177.585938 252.035156 C 177.664062 252.039062 177.578125 252.03125 177.582031 252.03125 L 177.226562 251.976562 C 176.953125 251.9375 176.683594 251.894531 176.410156 251.851562 C 176.140625 251.808594 175.867188 251.761719 175.597656 251.710938 C 171.273438 250.933594 167.035156 249.699219 162.96875 248.046875 C 160.933594 247.230469 158.945312 246.292969 157 245.28125 C 156.511719 245.03125 156.03125 244.769531 155.550781 244.503906 L 155.191406 244.304688 L 154.847656 244.105469 L 154.503906 243.910156 L 154.125 243.6875 C 153.179688 243.132812 152.246094 242.574219 151.332031 241.980469 C 149.503906 240.804688 147.753906 239.527344 146.09375 238.160156 C 144.429688 236.792969 142.859375 235.332031 141.398438 233.777344 C 139.9375 232.222656 138.578125 230.585938 137.347656 228.863281 C 136.113281 227.140625 135.007812 225.332031 134.027344 223.457031 C 132.0625 219.710938 130.644531 215.683594 129.75 211.515625 C 128.863281 207.347656 128.5 203.042969 128.621094 198.71875 C 128.6875 196.558594 128.863281 194.390625 129.148438 192.234375 C 129.4375 190.074219 129.839844 187.925781 130.335938 185.789062 C 131.332031 181.519531 132.738281 177.328125 134.472656 173.261719 C 136.214844 169.199219 138.289062 165.257812 140.667969 161.503906 C 140.964844 161.035156 141.265625 160.566406 141.570312 160.101562 C 141.726562 159.871094 141.875 159.636719 142.035156 159.40625 C 142.1875 159.175781 142.34375 158.941406 142.496094 158.722656 C 143.121094 157.8125 143.796875 156.878906 144.46875 155.964844 C 145.140625 155.050781 145.824219 154.148438 146.515625 153.257812 C 147.210938 152.371094 147.910156 151.496094 148.625 150.632812 C 149.339844 149.773438 150.070312 148.933594 150.8125 148.105469 L 151.371094 147.492188 L 151.9375 146.882812 C 152.125 146.679688 152.316406 146.484375 152.507812 146.285156 L 152.796875 145.988281 C 152.890625 145.886719 152.984375 145.796875 153.078125 145.699219 L 153.359375 145.417969 L 153.5 145.273438 L 153.570312 145.203125 L 153.648438 145.128906 L 154.277344 144.515625 L 154.355469 144.4375 C 154.390625 144.402344 154.351562 144.441406 154.367188 144.425781 L 154.402344 144.394531 L 154.8125 144.007812 L 155.382812 143.503906 C 156.160156 142.832031 156.996094 142.175781 157.863281 141.542969 C 159.605469 140.269531 161.480469 139.078125 163.40625 137.953125 C 163.546875 137.871094 163.683594 137.792969 163.824219 137.710938 C 163.828125 137.832031 163.832031 137.953125 163.835938 138.074219 C 163.921875 140.375 164.007812 142.683594 164.128906 144.996094 C 164.246094 147.3125 164.382812 149.628906 164.554688 151.953125 C 164.730469 154.273438 164.9375 156.601562 165.199219 158.925781 C 165.457031 161.253906 165.769531 163.578125 166.140625 165.898438 C 166.507812 168.21875 166.949219 170.535156 167.457031 172.835938 C 167.964844 175.136719 168.550781 177.421875 169.214844 179.6875 C 169.878906 181.953125 170.632812 184.191406 171.46875 186.402344 L 172.117188 188.074219 L 172.777344 189.664062 L 174.121094 192.839844 C 174.996094 194.941406 175.855469 197.039062 176.644531 199.152344 C 178.230469 203.378906 179.59375 207.671875 180.410156 212.0625 C 180.816406 214.257812 181.089844 216.476562 181.148438 218.703125 C 181.183594 219.816406 181.164062 220.929688 181.089844 222.042969 C 181.015625 223.15625 180.886719 224.265625 180.6875 225.367188 C 180.296875 227.566406 179.652344 229.734375 178.746094 231.808594 C 178.296875 232.847656 177.777344 233.863281 177.199219 234.847656 C 176.628906 235.835938 175.992188 236.785156 175.3125 237.714844 C 176.109375 236.886719 176.859375 236.007812 177.558594 235.085938 C 178.257812 234.164062 178.902344 233.195312 179.488281 232.1875 C 180.660156 230.171875 181.578125 227.992188 182.226562 225.722656 C 182.882812 223.457031 183.257812 221.109375 183.417969 218.75 C 183.574219 216.386719 183.515625 214.015625 183.292969 211.667969 C 183.074219 209.316406 182.691406 206.988281 182.214844 204.6875 C 181.734375 202.390625 181.152344 200.121094 180.503906 197.878906 C 179.855469 195.636719 179.152344 193.421875 178.417969 191.226562 L 177.3125 187.96875 L 176.769531 186.335938 L 176.277344 184.761719 C 175.640625 182.628906 175.078125 180.464844 174.589844 178.292969 C 174.101562 176.117188 173.691406 173.921875 173.339844 171.714844 C 172.992188 169.511719 172.714844 167.292969 172.484375 165.0625 C 172.253906 162.835938 172.085938 160.597656 171.957031 158.351562 C 171.824219 156.109375 171.738281 153.855469 171.683594 151.59375 C 171.628906 149.335938 171.601562 147.066406 171.59375 144.792969 C 171.589844 142.523438 171.59375 140.242188 171.609375 137.957031 L 171.660156 131.082031 L 171.707031 124.917969 L 165.980469 127.457031 L 165.523438 127.660156 L 165.097656 127.855469 L 164.257812 128.246094 C 163.703125 128.507812 163.152344 128.773438 162.605469 129.046875 C 162.398438 129.144531 162.195312 129.25 161.992188 129.351562 C 155.667969 132.953125 147.011719 139.167969 138.375 149.425781 C 132.386719 157.097656 126.554688 167.085938 121.828125 180.050781 C 121.488281 181.199219 121.175781 182.359375 120.886719 183.523438 C 120.289062 185.949219 119.816406 188.410156 119.464844 190.898438 C 119.113281 193.382812 118.882812 195.898438 118.808594 198.421875 C 118.730469 200.949219 118.789062 203.488281 119.003906 206.019531 C 119.21875 208.554688 119.601562 211.082031 120.140625 213.585938 C 120.410156 214.835938 120.722656 216.078125 121.078125 217.3125 C 121.429688 218.542969 121.828125 219.765625 122.269531 220.972656 C 123.148438 223.386719 124.203125 225.742188 125.414062 228.015625 C 126.621094 230.289062 128.007812 232.46875 129.527344 234.539062 C 131.050781 236.609375 132.710938 238.574219 134.5 240.402344 C 136.285156 242.230469 138.191406 243.933594 140.179688 245.507812 C 142.171875 247.082031 144.253906 248.519531 146.398438 249.835938 C 147.46875 250.488281 148.554688 251.121094 149.660156 251.710938 L 150.050781 251.914062 L 150.480469 252.136719 L 150.90625 252.355469 L 151.324219 252.566406 C 151.886719 252.84375 152.449219 253.113281 153.015625 253.378906 C 155.277344 254.4375 157.601562 255.363281 159.960938 256.171875 C 164.691406 257.773438 169.59375 258.871094 174.5625 259.355469 C 174.875 259.386719 175.183594 259.414062 175.496094 259.441406 C 175.804688 259.464844 176.117188 259.492188 176.429688 259.511719 L 176.945312 259.546875 L 177.382812 259.566406 L 178.261719 259.601562 C 178.414062 259.605469 178.550781 259.613281 178.707031 259.617188 L 179.183594 259.628906 L 180.140625 259.648438 C 180.460938 259.65625 180.765625 259.652344 181.074219 259.648438 L 182.003906 259.640625 C 184.476562 259.59375 186.933594 259.414062 189.367188 259.105469 C 194.234375 258.484375 198.988281 257.367188 203.574219 255.859375 C 208.160156 254.347656 212.574219 252.449219 216.800781 250.253906 C 221.023438 248.050781 225.070312 245.5625 228.882812 242.78125 C 224.53125 244.609375 220.164062 246.304688 215.742188 247.734375 " fill-opacity="1" fill-rule="nonzero"/></g><g clip-path="url(#45870a4aae)"><path fill="#ff3131" d="M 155.082031 158.195312 C 155.082031 158.195312 155.066406 158.257812 155.035156 158.378906 C 155.003906 158.503906 154.960938 158.6875 154.902344 158.929688 C 154.84375 159.167969 154.773438 159.460938 154.691406 159.808594 C 154.613281 160.15625 154.523438 160.554688 154.417969 161 C 154.21875 161.890625 153.984375 162.972656 153.730469 164.210938 C 153.480469 165.453125 153.210938 166.851562 152.945312 168.378906 C 152.675781 169.902344 152.421875 171.554688 152.179688 173.300781 C 151.941406 175.050781 151.730469 176.894531 151.554688 178.800781 C 151.386719 180.707031 151.261719 182.679688 151.195312 184.675781 C 151.128906 186.675781 151.132812 188.703125 151.207031 190.726562 C 151.277344 192.75 151.4375 194.765625 151.667969 196.738281 C 151.902344 198.714844 152.207031 200.644531 152.585938 202.5 C 152.964844 204.359375 153.414062 206.136719 153.90625 207.808594 C 154.402344 209.480469 154.933594 211.046875 155.484375 212.476562 C 155.621094 212.835938 155.757812 213.183594 155.890625 213.527344 C 156.035156 213.867188 156.175781 214.195312 156.308594 214.519531 C 156.375 214.683594 156.4375 214.847656 156.507812 215 C 156.578125 215.15625 156.648438 215.3125 156.714844 215.460938 C 156.851562 215.769531 156.984375 216.0625 157.113281 216.351562 C 157.246094 216.632812 157.375 216.910156 157.503906 217.175781 C 157.628906 217.441406 157.746094 217.699219 157.871094 217.945312 C 157.996094 218.1875 158.113281 218.421875 158.222656 218.648438 C 158.28125 218.761719 158.335938 218.871094 158.386719 218.976562 C 158.441406 219.085938 158.496094 219.1875 158.550781 219.289062 C 158.761719 219.691406 158.953125 220.054688 159.113281 220.371094 C 159.285156 220.683594 159.429688 220.949219 159.546875 221.164062 C 159.78125 221.601562 159.90625 221.832031 159.90625 221.832031 C 159.90625 221.832031 159.859375 221.785156 159.765625 221.699219 C 159.675781 221.609375 159.539062 221.476562 159.363281 221.300781 C 159.191406 221.125 158.972656 220.910156 158.726562 220.648438 C 158.480469 220.386719 158.207031 220.078125 157.894531 219.734375 C 157.738281 219.5625 157.582031 219.378906 157.417969 219.179688 C 157.257812 218.984375 157.085938 218.777344 156.90625 218.558594 C 156.820312 218.449219 156.726562 218.34375 156.636719 218.226562 C 156.550781 218.113281 156.460938 217.992188 156.367188 217.871094 C 156.1875 217.632812 155.996094 217.382812 155.800781 217.121094 C 155.046875 216.070312 154.21875 214.855469 153.425781 213.460938 C 152.632812 212.066406 151.835938 210.515625 151.113281 208.8125 C 150.394531 207.113281 149.738281 205.273438 149.191406 203.332031 C 148.640625 201.390625 148.195312 199.347656 147.875 197.253906 C 147.554688 195.164062 147.351562 193.019531 147.273438 190.875 C 147.199219 188.730469 147.234375 186.585938 147.378906 184.484375 C 147.523438 182.382812 147.769531 180.328125 148.097656 178.355469 C 148.425781 176.386719 148.828125 174.5 149.28125 172.734375 C 149.734375 170.964844 150.234375 169.316406 150.746094 167.8125 C 150.875 167.4375 151.003906 167.070312 151.132812 166.710938 C 151.261719 166.355469 151.390625 166.007812 151.519531 165.667969 C 151.785156 164.996094 152.03125 164.355469 152.289062 163.765625 C 152.789062 162.578125 153.265625 161.558594 153.679688 160.734375 C 153.785156 160.527344 153.882812 160.332031 153.976562 160.148438 C 154.070312 159.96875 154.164062 159.796875 154.246094 159.640625 C 154.417969 159.324219 154.566406 159.058594 154.691406 158.84375 C 154.8125 158.628906 154.914062 158.464844 154.980469 158.359375 C 155.046875 158.25 155.082031 158.195312 155.082031 158.195312 " fill-opacity="1" fill-rule="nonzero"/></g><g clip-path="url(#fa9bef5dd0)"><path fill="#ffde59" d="M 221.546875 229.226562 L 221.636719 229.140625 C 225.871094 225.0625 229.109375 221.597656 229.109375 217.285156 C 229.109375 213.816406 226.859375 210.320312 221.824219 210.320312 C 219.421875 210.320312 217.117188 211.148438 215.339844 212.652344 L 214.828125 213.082031 L 216.484375 216.75 L 217.378906 216.003906 C 218.078125 215.417969 219.511719 214.4375 221.246094 214.4375 C 223.410156 214.4375 224.507812 215.515625 224.507812 217.628906 C 224.480469 220.371094 222.273438 222.910156 216.996094 227.933594 L 214.507812 230.347656 L 214.507812 233.34375 L 229.625 233.34375 L 229.625 229.226562 L 221.546875 229.226562 " fill-opacity="1" fill-rule="nonzero"/></g><path fill="#ffde59" d="M 206.492188 226.691406 L 195.84375 226.691406 L 195.84375 144.414062 L 206.492188 144.414062 L 206.492188 226.691406 " fill-opacity="1" fill-rule="nonzero"/><g clip-path="url(#964f19edca)"><path fill="#ffde59" d="M 171.914062 188.496094 L 171.914062 180.050781 L 203.601562 180.050781 L 203.601562 188.496094 L 171.914062 188.496094 " fill-opacity="1" fill-rule="nonzero"/></g><g clip-path="url(#22d3a80fed)"><path fill="#ffde59" d="M 215.597656 247.734375 C 211.175781 249.171875 206.710938 250.355469 202.21875 251.207031 C 197.726562 252.058594 193.210938 252.578125 188.726562 252.683594 L 187.046875 252.703125 L 185.367188 252.683594 C 184.8125 252.660156 184.253906 252.648438 183.699219 252.621094 L 182.863281 252.574219 C 182.585938 252.558594 182.308594 252.546875 182.03125 252.519531 L 181.199219 252.453125 C 180.925781 252.433594 180.644531 252.414062 180.382812 252.382812 L 179.578125 252.296875 L 179.179688 252.257812 C 179.042969 252.242188 178.890625 252.21875 178.75 252.203125 L 177.875 252.089844 L 177.4375 252.035156 C 177.519531 252.039062 177.429688 252.03125 177.4375 252.03125 L 177.285156 252.007812 L 177.078125 251.976562 C 176.808594 251.9375 176.535156 251.894531 176.265625 251.851562 C 175.992188 251.808594 175.722656 251.761719 175.453125 251.710938 C 171.128906 250.933594 166.890625 249.699219 162.824219 248.046875 C 160.785156 247.230469 158.796875 246.292969 156.855469 245.28125 C 156.367188 245.03125 155.886719 244.769531 155.40625 244.503906 L 155.046875 244.304688 L 154.703125 244.105469 L 154.359375 243.910156 L 153.980469 243.6875 C 153.035156 243.132812 152.101562 242.574219 151.1875 241.980469 C 149.359375 240.804688 147.609375 239.527344 145.949219 238.160156 C 144.285156 236.792969 142.710938 235.332031 141.253906 233.777344 C 139.792969 232.222656 138.433594 230.585938 137.203125 228.863281 C 135.96875 227.140625 134.863281 225.332031 133.882812 223.457031 C 131.917969 219.710938 130.496094 215.683594 129.601562 211.515625 C 128.714844 207.347656 128.355469 203.042969 128.476562 198.71875 C 128.542969 196.558594 128.714844 194.390625 129.003906 192.234375 C 129.289062 190.074219 129.695312 187.925781 130.191406 185.789062 C 131.183594 181.519531 132.59375 177.328125 134.324219 173.261719 C 136.070312 169.199219 138.144531 165.257812 140.523438 161.503906 C 140.820312 161.035156 141.121094 160.566406 141.425781 160.101562 C 141.578125 159.871094 141.730469 159.636719 141.886719 159.40625 C 142.042969 159.175781 142.199219 158.941406 142.351562 158.722656 C 142.976562 157.8125 143.652344 156.878906 144.320312 155.964844 C 144.996094 155.050781 145.679688 154.148438 146.371094 153.257812 C 147.0625 152.371094 147.765625 151.496094 148.480469 150.632812 C 149.195312 149.773438 149.925781 148.933594 150.667969 148.105469 L 151.226562 147.492188 L 151.792969 146.882812 C 151.980469 146.679688 152.171875 146.484375 152.363281 146.285156 L 152.652344 145.988281 C 152.746094 145.886719 152.839844 145.796875 152.933594 145.699219 L 153.214844 145.417969 L 153.355469 145.273438 L 153.425781 145.203125 L 153.503906 145.128906 L 154.132812 144.515625 L 154.210938 144.4375 C 154.246094 144.402344 154.207031 144.441406 154.222656 144.425781 L 154.257812 144.394531 L 154.667969 144.007812 L 155.234375 143.503906 C 156.011719 142.832031 156.847656 142.175781 157.71875 141.542969 C 159.460938 140.269531 161.335938 139.078125 163.261719 137.953125 C 163.398438 137.871094 163.539062 137.792969 163.675781 137.710938 C 163.683594 137.832031 163.6875 137.953125 163.691406 138.074219 C 163.777344 140.375 163.863281 142.683594 163.984375 144.996094 C 164.101562 147.3125 164.238281 149.628906 164.410156 151.953125 C 164.585938 154.273438 164.792969 156.601562 165.050781 158.925781 C 165.308594 161.253906 165.625 163.578125 165.992188 165.898438 C 166.363281 168.21875 166.804688 170.535156 167.3125 172.835938 C 167.816406 175.136719 168.40625 177.421875 169.070312 179.6875 C 169.734375 181.953125 170.484375 184.191406 171.320312 186.402344 L 171.972656 188.074219 L 172.632812 189.664062 L 173.976562 192.839844 C 174.851562 194.941406 175.710938 197.039062 176.5 199.152344 C 178.085938 203.378906 179.449219 207.671875 180.265625 212.0625 C 180.671875 214.257812 180.941406 216.476562 181.003906 218.703125 C 181.039062 219.816406 181.019531 220.929688 180.945312 222.042969 C 180.871094 223.15625 180.742188 224.265625 180.542969 225.367188 C 180.152344 227.566406 179.503906 229.734375 178.601562 231.808594 C 178.148438 232.847656 177.632812 233.863281 177.054688 234.847656 C 176.480469 235.835938 175.847656 236.785156 175.167969 237.714844 C 175.964844 236.886719 176.714844 236.007812 177.414062 235.085938 C 178.113281 234.164062 178.757812 233.195312 179.34375 232.1875 C 180.515625 230.171875 181.433594 227.992188 182.082031 225.722656 C 182.738281 223.457031 183.109375 221.109375 183.273438 218.75 C 183.429688 216.386719 183.367188 214.015625 183.144531 211.667969 C 182.925781 209.316406 182.546875 206.988281 182.070312 204.6875 C 181.589844 202.390625 181.003906 200.121094 180.359375 197.878906 C 179.710938 195.636719 179.007812 193.421875 178.273438 191.226562 L 177.164062 187.96875 L 176.621094 186.335938 L 176.132812 184.761719 C 175.492188 182.628906 174.933594 180.464844 174.445312 178.292969 C 173.953125 176.117188 173.542969 173.921875 173.195312 171.714844 C 172.84375 169.511719 172.566406 167.292969 172.339844 165.0625 C 172.109375 162.835938 171.941406 160.597656 171.808594 158.351562 C 171.679688 156.109375 171.59375 153.855469 171.539062 151.59375 C 171.484375 149.335938 171.457031 147.066406 171.449219 144.792969 C 171.445312 142.523438 171.449219 140.242188 171.464844 137.957031 L 171.515625 131.082031 L 171.5625 124.917969 L 165.835938 127.457031 L 165.378906 127.660156 L 164.953125 127.855469 L 164.113281 128.246094 C 163.558594 128.507812 163.007812 128.773438 162.457031 129.046875 C 162.253906 129.144531 162.050781 129.25 161.847656 129.351562 C 155.523438 132.953125 146.867188 139.167969 138.226562 149.425781 C 132.238281 157.097656 126.410156 167.085938 121.683594 180.050781 C 121.34375 181.199219 121.03125 182.359375 120.742188 183.523438 C 120.144531 185.949219 119.671875 188.410156 119.320312 190.898438 C 118.96875 193.382812 118.738281 195.898438 118.660156 198.421875 C 118.582031 200.949219 118.644531 203.488281 118.859375 206.019531 C 119.074219 208.554688 119.457031 211.082031 119.996094 213.585938 C 120.265625 214.835938 120.578125 216.078125 120.933594 217.3125 C 121.285156 218.542969 121.683594 219.765625 122.125 220.972656 C 123.003906 223.386719 124.054688 225.742188 125.265625 228.015625 C 126.472656 230.289062 127.863281 232.46875 129.382812 234.539062 C 130.90625 236.609375 132.566406 238.574219 134.355469 240.402344 C 136.140625 242.230469 138.042969 243.933594 140.035156 245.507812 C 142.023438 247.082031 144.109375 248.519531 146.253906 249.835938 C 147.324219 250.488281 148.410156 251.121094 149.511719 251.710938 L 149.902344 251.914062 L 150.332031 252.136719 L 150.761719 252.355469 L 151.179688 252.566406 C 151.738281 252.84375 152.300781 253.113281 152.867188 253.378906 C 155.132812 254.4375 157.457031 255.363281 159.816406 256.171875 C 164.542969 257.773438 169.449219 258.871094 174.417969 259.355469 C 174.730469 259.386719 175.039062 259.414062 175.351562 259.441406 C 175.660156 259.464844 175.972656 259.492188 176.28125 259.511719 L 176.800781 259.546875 L 177.238281 259.566406 L 178.117188 259.601562 C 178.265625 259.605469 178.40625 259.613281 178.5625 259.617188 L 179.039062 259.628906 L 179.996094 259.648438 C 180.316406 259.65625 180.621094 259.652344 180.929688 259.648438 L 181.859375 259.640625 C 184.328125 259.59375 186.789062 259.414062 189.222656 259.105469 C 194.085938 258.484375 198.84375 257.367188 203.429688 255.859375 C 208.011719 254.347656 212.429688 252.449219 216.65625 250.253906 C 220.878906 248.050781 224.921875 245.5625 228.738281 242.78125 C 224.386719 244.609375 220.019531 246.304688 215.597656 247.734375 " fill-opacity="1" fill-rule="nonzero"/></g><g clip-path="url(#eaea4ae85d)"><g clip-path="url(#978bfde5d7)"><path fill="#000000" d="M 194.824219 123.328125 L 208.511719 123.328125 L 208.511719 137.019531 L 194.824219 137.019531 Z M 194.824219 123.328125 " fill-opacity="1" fill-rule="nonzero"/></g></g><g mask="url(#a13516ddaf)"><g transform="matrix(1, 0, 0, 1, 197, 146)"><g clip-path="url(#56210c8de9)"><g clip-path="url(#da9d5f7da5)"><g fill="#000000" fill-opacity="1"><g transform="translate(6.710512, 76.337188)"><g><path d="M 0 -0.410156 L 0 -2.042969 L -5.820312 -2.042969 L -5.820312 -0.410156 Z M 0 -0.410156 "/></g></g></g></g><g clip-path="url(#8f25167211)"><g fill="#000000" fill-opacity="1"><g transform="translate(6.710512, 73.88465)"><g><path d="M 0 -0.410156 L 0 -1.96875 L -4.277344 -1.96875 L -4.277344 -1.976562 L 0 -5.632812 L 0 -7.636719 L -5.820312 -7.636719 L -5.820312 -6.066406 L -1.578125 -6.066406 L -1.578125 -6.058594 L -5.820312 -2.410156 L -5.820312 -0.410156 Z M 0 -0.410156 "/></g></g></g></g><g clip-path="url(#7438f69afb)"><g fill="#000000" fill-opacity="1"><g transform="translate(6.710512, 65.840312)"><g><path d="M 0 -2.5 L 0 -4.144531 L -4.628906 -4.144531 L -4.628906 -6.582031 L -5.820312 -6.582031 L -5.820312 -0.0585938 L -4.628906 -0.0585938 L -4.628906 -2.5 Z M 0 -2.5 "/></g></g></g></g><g clip-path="url(#34436c9d82)"><g fill="#000000" fill-opacity="1"><g transform="translate(6.710512, 59.202105)"><g><path d="M 0 -0.410156 L 0 -6.464844 L -1.070312 -6.464844 L -1.070312 -2.003906 L -2.507812 -2.003906 L -2.507812 -6.058594 L -3.449219 -6.058594 L -3.449219 -2.003906 L -4.75 -2.003906 L -4.75 -6.382812 L -5.820312 -6.382812 L -5.820312 -0.410156 Z M 0 -0.410156 "/></g></g></g></g><g clip-path="url(#963f1a75dd)"><g fill="#000000" fill-opacity="1"><g transform="translate(6.710512, 52.572068)"><g><path d="M 0.164062 -4.105469 C 0.164062 -5.402344 -0.328125 -6.53125 -1.085938 -7.097656 L -1.085938 -7.105469 L 0 -7.1875 L 0 -8.492188 L -3.300781 -8.492188 L -3.300781 -3.253906 L -2.410156 -3.253906 L -2.410156 -6.90625 C -1.570312 -6.859375 -0.949219 -5.851562 -0.949219 -4.554688 C -0.949219 -3.007812 -1.742188 -1.9375 -2.871094 -1.9375 C -4.039062 -1.9375 -4.832031 -2.910156 -4.832031 -4.308594 C -4.832031 -5.214844 -4.429688 -6.035156 -3.859375 -6.230469 L -4.144531 -7.757812 C -5.238281 -7.488281 -5.984375 -6.050781 -5.984375 -4.308594 C -5.984375 -1.921875 -4.699219 -0.285156 -2.828125 -0.285156 C -1.0625 -0.285156 0.164062 -1.847656 0.164062 -4.105469 Z M 0.164062 -4.105469 "/></g></g></g></g><g clip-path="url(#648919f564)"><g fill="#000000" fill-opacity="1"><g transform="translate(6.710512, 43.791972)"><g><path d="M 0.164062 -6.636719 C 0.164062 -7.128906 -0.0390625 -7.660156 -0.328125 -7.945312 L -1.03125 -7.601562 C -0.875 -7.488281 -0.777344 -7.300781 -0.777344 -7.144531 C -0.777344 -6.917969 -0.90625 -6.785156 -1.085938 -6.679688 L -1.796875 -6.269531 C -2.058594 -6.132812 -2.265625 -5.953125 -2.371094 -5.714844 L -2.378906 -5.714844 C -2.542969 -6.777344 -3.15625 -7.421875 -4.03125 -7.421875 C -5.148438 -7.421875 -5.820312 -6.546875 -5.820312 -5.085938 L -5.820312 -0.410156 L 0 -0.410156 L 0 -2.050781 L -2.09375 -2.050781 L -2.09375 -3.84375 C -2.09375 -4.25 -1.878906 -4.601562 -1.503906 -4.824219 L -0.742188 -5.214844 C -0.285156 -5.492188 0.164062 -5.886719 0.164062 -6.636719 Z M -3.082031 -2.050781 L -4.789062 -2.050781 L -4.789062 -4.636719 C -4.789062 -5.339844 -4.464844 -5.773438 -3.933594 -5.773438 C -3.417969 -5.773438 -3.082031 -5.339844 -3.082031 -4.636719 Z M -3.082031 -2.050781 "/></g></g></g></g><g clip-path="url(#a9487728ee)"><g fill="#000000" fill-opacity="1"><g transform="translate(6.710512, 35.845743)"><g><path d="M 0 -0.015625 L 0 -1.726562 L -1.144531 -2.28125 L -1.144531 -5.550781 L 0 -6.105469 L 0 -7.816406 L -5.820312 -4.898438 L -5.820312 -2.992188 Z M -2.132812 -2.648438 L -4.757812 -3.914062 L -4.757812 -3.933594 L -2.132812 -5.183594 Z M -2.132812 -2.648438 "/></g></g></g></g><g clip-path="url(#a3058d207e)"><g fill="#000000" fill-opacity="1"><g transform="translate(6.710512, 28.005784)"><g><path d="M 0 -2.5 L 0 -4.144531 L -4.628906 -4.144531 L -4.628906 -6.582031 L -5.820312 -6.582031 L -5.820312 -0.0585938 L -4.628906 -0.0585938 L -4.628906 -2.5 Z M 0 -2.5 "/></g></g></g></g><g clip-path="url(#ba315ee853)"><g fill="#000000" fill-opacity="1"><g transform="translate(6.710512, 21.367577)"><g><path d="M 0 -0.410156 L 0 -2.042969 L -5.820312 -2.042969 L -5.820312 -0.410156 Z M 0 -0.410156 "/></g></g></g></g><g clip-path="url(#35dd4d88b6)"><g fill="#000000" fill-opacity="1"><g transform="translate(6.710512, 18.915039)"><g><path d="M 0.203125 -4.445312 C 0.203125 -6.941406 -1.054688 -8.617188 -2.910156 -8.617188 C -4.765625 -8.617188 -6.023438 -6.941406 -6.023438 -4.445312 C -6.023438 -1.960938 -4.765625 -0.285156 -2.910156 -0.285156 C -1.054688 -0.285156 0.203125 -1.960938 0.203125 -4.445312 Z M -0.988281 -4.445312 C -0.988281 -2.953125 -1.765625 -1.929688 -2.910156 -1.929688 C -4.054688 -1.929688 -4.832031 -2.953125 -4.832031 -4.445312 C -4.832031 -5.953125 -4.054688 -6.972656 -2.910156 -6.972656 C -1.765625 -6.972656 -0.988281 -5.953125 -0.988281 -4.445312 Z M -0.988281 -4.445312 "/></g></g></g></g><g clip-path="url(#ea58194b96)"><g fill="#000000" fill-opacity="1"><g transform="translate(6.710512, 10.012321)"><g><path d="M 0 -0.410156 L 0 -1.96875 L -4.277344 -1.96875 L -4.277344 -1.976562 L 0 -5.632812 L 0 -7.636719 L -5.820312 -7.636719 L -5.820312 -6.066406 L -1.578125 -6.066406 L -1.578125 -6.058594 L -5.820312 -2.410156 L -5.820312 -0.410156 Z M 0 -0.410156 "/></g></g></g></g></g></g></g></svg>